<?xml version="1.0" standalone="no"?>
<!DOCTYPE svg PUBLIC "-//W3C//DTD SVG 20010904//EN"
 "http://www.w3.org/TR/2001/REC-SVG-20010904/DTD/svg10.dtd">
<svg version="1.0" xmlns="http://www.w3.org/2000/svg"
 width="1280.000000pt" height="1280.000000pt" viewBox="0 0 1280.000000 1280.000000"
 preserveAspectRatio="xMidYMid meet">
<metadata>
Created by potrace 1.15, written by Peter Selinger 2001-2017
</metadata>
<g transform="translate(0.000000,1280.000000) scale(0.100000,-0.100000)"
fill="#000000" stroke="none">
<path d="M0 6400 l0 -6400 6400 0 6400 0 0 6400 0 6400 -6400 0 -6400 0 0
-6400z m6675 5850 c704 -36 1341 -178 1975 -440 175 -71 538 -252 705 -350
757 -444 1402 -1047 1896 -1770 64 -94 199 -306 199 -313 0 -2 23 -42 51 -88
52 -85 222 -421 273 -539 265 -611 421 -1239 477 -1915 12 -147 15 -665 5
-845 -8 -139 -24 -402 -26 -415 -1 -5 -6 -1 -11 10 -7 15 -8 12 -4 -15 7 -42
-16 -255 -25 -239 -5 7 -9 6 -13 -4 -3 -8 -1 -19 5 -25 7 -7 6 -16 -1 -30 -6
-11 -15 -53 -21 -93 -6 -41 -13 -89 -16 -107 -3 -23 -2 -32 5 -27 7 4 8 0 4
-11 -4 -11 -8 -13 -11 -6 -5 16 -22 16 -18 -1 3 -6 7 -25 10 -42 l7 -30 -19
23 -18 23 4 -41 c2 -22 1 -48 -3 -58 -10 -22 -15 -40 -22 -75 -4 -19 -10 -26
-19 -23 -11 4 -12 1 -4 -14 13 -24 13 -63 0 -55 -6 4 -10 -5 -10 -20 0 -37
-29 -164 -46 -202 -8 -17 -14 -44 -14 -60 0 -15 -5 -35 -10 -43 -7 -11 -8 -5
-4 20 5 27 4 33 -6 24 -6 -7 -12 -29 -12 -50 0 -22 -4 -45 -10 -51 -6 -7 -7
-24 -4 -38 4 -15 2 -25 -4 -25 -6 0 -20 -20 -32 -45 -19 -38 -20 -49 -10 -66
12 -18 10 -19 -15 -13 -19 4 -24 3 -14 -4 16 -11 8 -44 -17 -69 -10 -10 -16
-31 -16 -56 1 -21 -2 -34 -6 -27 -5 8 -10 2 -14 -17 -4 -15 -17 -44 -29 -63
-22 -36 -51 -110 -67 -169 -5 -19 -15 -41 -24 -49 -13 -14 -16 -12 -22 12 -3
15 -8 25 -11 22 -2 -2 1 -22 8 -45 10 -34 10 -44 -3 -58 -8 -10 -20 -32 -27
-50 -7 -17 -19 -34 -27 -37 -8 -3 -14 -16 -14 -29 0 -13 -9 -32 -20 -42 -11
-10 -20 -26 -20 -36 0 -10 -11 -31 -25 -47 -14 -17 -25 -33 -25 -37 0 -19 -56
-84 -69 -80 -11 4 -11 2 -2 -8 8 -11 6 -18 -9 -32 -11 -10 -20 -27 -20 -38 0
-10 -10 -32 -21 -49 -17 -23 -24 -27 -31 -16 -5 8 -6 3 -2 -15 5 -22 1 -31
-20 -48 -14 -11 -26 -27 -26 -35 0 -8 -13 -29 -30 -47 -16 -18 -30 -37 -30
-44 0 -6 -11 -20 -25 -31 -14 -11 -25 -29 -25 -40 0 -12 -9 -23 -21 -27 -11
-4 -27 -22 -35 -41 -8 -19 -25 -44 -38 -55 -14 -12 -27 -32 -30 -45 -4 -13
-13 -24 -21 -24 -8 0 -15 -6 -15 -14 0 -12 -55 -79 -127 -154 -18 -19 -33 -40
-33 -47 0 -7 -7 -15 -15 -19 -8 -3 -20 -17 -27 -31 -8 -17 -18 -25 -29 -22
-11 3 -15 -1 -12 -12 5 -21 -51 -75 -71 -68 -10 4 -13 1 -9 -9 3 -8 -5 -25
-18 -37 -13 -13 -52 -53 -87 -90 -35 -37 -66 -67 -68 -67 -3 0 -30 -27 -61
-61 -37 -40 -62 -59 -73 -56 -12 3 -16 0 -13 -12 3 -10 -10 -27 -36 -46 -22
-17 -41 -33 -41 -37 0 -4 -19 -18 -42 -32 -24 -14 -62 -46 -86 -71 -24 -25
-45 -45 -48 -45 -3 0 -20 -11 -38 -25 -18 -14 -36 -25 -39 -25 -4 0 -15 -8
-25 -17 -67 -64 -104 -94 -114 -91 -7 3 -25 -11 -41 -29 -16 -18 -34 -33 -41
-33 -7 0 -27 -16 -46 -35 -18 -19 -36 -32 -40 -30 -4 3 -20 -7 -36 -20 -48
-42 -103 -75 -126 -75 -8 0 -27 -14 -42 -30 -15 -17 -30 -28 -35 -26 -4 3 -19
-6 -31 -19 -13 -14 -30 -25 -37 -25 -8 0 -29 -11 -47 -25 -18 -14 -40 -25 -49
-25 -9 0 -18 -4 -22 -9 -6 -11 -123 -71 -137 -71 -5 0 -24 -11 -43 -25 -18
-14 -56 -34 -84 -44 -29 -10 -57 -23 -64 -30 -6 -6 -19 -11 -28 -11 -9 0 -19
-7 -23 -15 -3 -8 -9 -15 -13 -14 -23 4 -44 -3 -77 -26 -20 -14 -46 -25 -57
-25 -12 0 -32 -9 -46 -20 -14 -11 -35 -20 -47 -20 -11 0 -36 -9 -54 -20 -18
-11 -50 -20 -72 -20 -22 0 -40 -4 -40 -8 0 -8 -63 -48 -68 -44 -4 4 -85 -19
-117 -33 -16 -7 -50 -18 -75 -25 -25 -6 -79 -20 -120 -31 -41 -11 -91 -17
-110 -15 -19 3 -27 2 -17 0 9 -3 17 -9 17 -14 0 -11 -66 -30 -106 -30 -16 0
-39 -7 -50 -15 -26 -19 -44 -19 -61 3 -8 9 -12 11 -8 5 4 -9 -2 -13 -17 -14
-23 -1 -23 -1 2 -9 16 -6 2 -7 -42 -5 -47 3 -67 1 -71 -9 -5 -13 -70 -30 -162
-42 -27 -4 -56 -11 -62 -16 -7 -6 -23 -8 -35 -5 -27 6 -217 -15 -236 -27 -8
-4 -11 -3 -10 5 2 6 -3 14 -11 17 -10 3 -12 0 -7 -13 4 -12 2 -16 -8 -12 -8 3
-17 1 -19 -6 -3 -9 -9 -9 -25 0 -12 7 -27 11 -34 8 -7 -3 -40 -7 -72 -8 -33
-2 -62 -9 -64 -15 -2 -8 -41 -9 -125 -6 -91 4 -118 3 -107 -5 12 -9 10 -11
-10 -6 -14 3 -75 2 -137 -3 -62 -4 -109 -4 -105 0 4 4 41 9 82 11 41 2 12 2
-65 0 -77 -2 -160 -6 -185 -8 -37 -3 -40 -3 -15 4 24 7 15 9 -45 11 -56 2 -67
4 -45 10 20 5 4 7 -50 7 -48 0 -72 -3 -60 -8 34 -13 2 -10 -60 6 -32 9 -77 15
-99 14 -23 -1 -83 4 -135 11 -52 6 -103 9 -113 7 -10 -3 -15 -1 -12 5 4 6 -18
7 -58 4 -39 -3 -50 -2 -28 2 31 7 27 9 -38 16 -40 4 -82 4 -93 1 -15 -5 -19
-4 -15 4 5 7 -1 11 -14 11 -27 0 -397 81 -465 101 -16 5 -82 23 -145 40 -488
132 -1008 359 -1480 648 -81 49 -139 86 -155 98 -6 5 -48 34 -95 65 -558 375
-1101 916 -1504 1498 -492 709 -837 1562 -965 2385 -113 723 -102 1397 35
2100 138 711 424 1414 833 2045 55 85 278 401 290 410 4 3 24 28 46 55 100
126 296 345 434 482 342 343 726 644 1138 891 813 487 1736 769 2693 821 224
12 370 12 585 1z"/>
<path d="M6035 12029 c-1058 -73 -2034 -420 -2905 -1033 -447 -315 -925 -785
-1259 -1236 -349 -471 -626 -1000 -813 -1550 -393 -1156 -397 -2424 -13 -3584
378 -1143 1112 -2134 2098 -2834 764 -542 1651 -884 2587 -996 369 -45 951
-47 1290 -7 1040 125 1947 483 2759 1089 93 70 362 289 381 311 3 3 54 51 114
106 366 336 766 843 1029 1307 418 736 668 1558 727 2388 13 186 13 635 0 810
-47 639 -189 1224 -437 1809 -78 184 -197 427 -270 549 -24 41 -43 75 -43 77
0 20 -277 436 -365 550 -110 141 -199 251 -264 325 -1088 1239 -2634 1938
-4271 1928 -124 0 -279 -5 -345 -9z m620 -1829 c816 -60 1554 -356 2186 -879
246 -204 646 -641 613 -670 -5 -4 -52 -37 -104 -73 -52 -36 -151 -105 -220
-153 -68 -48 -129 -88 -135 -89 -6 -1 -59 58 -118 129 -683 821 -1714 1255
-2757 1160 -641 -58 -1226 -295 -1740 -703 -129 -103 -398 -373 -504 -507
-399 -503 -636 -1084 -697 -1712 -15 -149 -6 -578 15 -723 99 -698 423 -1349
913 -1835 375 -372 784 -627 1268 -793 359 -123 835 -188 1190 -163 304 22
469 50 724 123 313 89 658 254 930 444 276 193 567 473 744 715 58 79 94 132
133 192 l44 67 0 645 0 645 -1330 0 -1330 0 0 250 0 250 483 0 c1644 2 2712
-1 2719 -8 4 -4 7 -851 5 -1882 l-2 -1875 -145 -3 c-80 -2 -196 0 -257 3
l-113 7 -2 604 -3 604 -105 -127 c-307 -372 -657 -651 -1085 -863 -543 -269
-1092 -382 -1745 -358 -723 25 -1444 270 -2038 691 -870 617 -1431 1545 -1573
2601 -26 199 -36 600 -20 797 51 589 219 1126 507 1617 465 791 1214 1396
2089 1687 455 151 989 219 1460 185z m44 -3274 c15 -8 33 -21 40 -30 18 -22
-29 -52 -58 -37 -56 31 -121 -4 -121 -64 0 -63 73 -96 121 -55 l24 19 -37 1
c-35 0 -38 2 -38 30 l0 30 65 0 65 0 0 -85 c0 -83 -1 -85 -24 -85 -13 0 -26 5
-28 10 -2 7 -14 6 -34 -1 -44 -17 -100 -3 -141 35 -31 28 -37 40 -40 87 -3 42
0 61 16 87 41 65 126 91 190 58z m395 -15 c14 -13 29 -39 32 -58 6 -34 -11
-93 -28 -93 -21 0 -18 -31 6 -63 33 -43 33 -47 -3 -47 -44 0 -58 8 -82 46 -12
20 -29 34 -40 34 -15 0 -19 -7 -19 -39 0 -38 -2 -40 -30 -39 -17 1 -33 5 -36
10 -4 7 -6 115 -4 251 l0 29 89 -4 c78 -3 93 -6 115 -27z m216 -65 c0 -105 10
-126 59 -126 44 0 55 22 59 126 l4 94 35 0 35 0 -4 -111 -3 -111 -37 -34 c-29
-26 -46 -34 -76 -34 -58 0 -94 16 -119 53 -20 29 -23 46 -23 135 l0 102 35 0
35 0 0 -94z m519 70 c25 -23 31 -60 15 -92 -12 -22 -11 -28 6 -47 26 -28 25
-60 -4 -93 -22 -27 -27 -28 -122 -28 l-99 -1 -2 129 c-1 71 1 135 4 144 9 22
175 13 202 -12z m379 -13 c3 -33 3 -33 -42 -33 l-46 0 0 -105 c0 -58 -3 -106
-7 -106 -5 -1 -19 -2 -33 -3 l-25 -1 -3 108 -3 107 -44 0 c-43 0 -45 1 -45 28
0 16 3 31 6 34 3 4 58 6 122 5 l117 -2 3 -32z m317 14 c98 -55 98 -189 0 -244
-49 -28 -99 -29 -145 -4 -75 39 -102 130 -60 199 43 71 130 92 205 49z m253
-24 c2 -24 5 -43 8 -43 2 0 24 20 47 45 39 40 49 45 87 45 l43 0 -19 -22 c-10
-12 -34 -38 -51 -58 -18 -19 -33 -39 -33 -44 0 -4 23 -39 50 -77 28 -38 50
-73 50 -79 0 -5 -17 -10 -37 -10 -34 0 -42 5 -73 50 -44 62 -64 61 -68 -3 -3
-48 -4 -48 -35 -45 l-32 3 -3 129 c-1 72 0 136 3 144 3 8 16 12 32 10 25 -3
28 -7 31 -45z m510 10 l3 -33 -70 0 c-64 0 -71 -2 -71 -20 0 -18 7 -20 54 -20
57 0 66 -7 58 -47 -4 -21 -10 -23 -58 -23 -47 0 -54 -2 -54 -20 0 -18 7 -20
70 -20 l70 0 0 -35 0 -35 -94 0 c-52 0 -101 3 -110 6 -14 5 -16 27 -16 139 0
97 3 135 13 139 6 2 55 4 107 3 l95 -2 3 -32z m244 -40 l63 -78 3 78 3 77 35
0 35 0 -3 -142 -3 -143 -24 -1 c-26 -2 -59 29 -113 104 -17 23 -35 42 -40 42
-4 0 -8 -34 -8 -76 l0 -75 -32 3 -33 3 -3 129 c-1 72 0 136 2 143 3 7 16 13
30 13 19 0 40 -19 88 -77z"/>
<path d="M6205 10094 c-614 -48 -1096 -186 -1589 -456 -640 -351 -1168 -888
-1496 -1520 -176 -340 -284 -646 -354 -1003 -76 -385 -87 -841 -30 -1235 182
-1255 1008 -2334 2179 -2844 328 -142 666 -235 1056 -288 151 -21 732 -17 889
5 602 86 1106 288 1555 623 144 107 176 135 331 289 178 177 297 325 516 645
16 24 17 17 19 -170 1 -107 0 -437 -1 -732 l-2 -538 146 0 146 0 1 643 c5
1857 5 2434 1 2655 l-4 242 -1489 0 -1489 0 0 -140 0 -140 1329 0 c1177 0
1330 -2 1335 -15 3 -8 6 -326 6 -706 l0 -691 -76 -117 c-156 -236 -276 -383
-471 -577 -364 -362 -802 -630 -1291 -789 -625 -203 -1243 -216 -1902 -38
-365 98 -803 307 -1086 519 -324 242 -552 472 -767 773 -335 468 -535 1004
-598 1601 -15 151 -13 520 5 680 108 973 629 1835 1452 2403 231 159 550 317
824 407 549 181 1146 218 1706 104 669 -135 1296 -488 1776 -997 59 -62 124
-134 144 -159 l38 -46 133 90 c74 49 137 96 140 104 15 40 -398 465 -622 638
-551 428 -1168 682 -1845 761 -131 15 -513 27 -615 19z"/>
<path d="M8391 6844 c-28 -35 -26 -69 4 -99 49 -50 125 -19 125 50 0 72 -86
104 -129 49z"/>
</g>
</svg>
